<svg width="30" height="30" viewBox="0 0 30 30" fill="none" xmlns="http://www.w3.org/2000/svg">
<path fill-rule="evenodd" clip-rule="evenodd" d="M8.75 3.75C7.36929 3.75 6.25 4.86929 6.25 6.25V23.75C6.25 25.1307 7.36929 26.25 8.75 26.25H11.25C11.9404 26.25 12.5 26.8096 12.5 27.5C12.5 28.1904 11.9404 28.75 11.25 28.75H8.75C5.98858 28.75 3.75 26.5114 3.75 23.75V6.25C3.75 3.48858 5.98858 1.25 8.75 1.25H16.9936C18.4775 1.25 19.8847 1.90912 20.8347 3.04908L25.0911 8.15677C25.8399 9.05534 26.25 10.188 26.25 11.3577V23.75C26.25 26.5114 24.0114 28.75 21.25 28.75H18.75C18.0596 28.75 17.5 28.1904 17.5 27.5C17.5 26.8096 18.0596 26.25 18.75 26.25H21.25C22.6307 26.25 23.75 25.1307 23.75 23.75V12.5H21.25C18.4886 12.5 16.25 10.2614 16.25 7.5V3.75H8.75ZM23.1706 9.75723C23.2352 9.83483 23.2948 9.91592 23.3492 10H21.25C19.8693 10 18.75 8.88071 18.75 7.5V4.47093C18.8073 4.5275 18.8621 4.58707 18.9141 4.64954L23.1706 9.75723Z" fill="#37ABDF"/>
<path d="M17.7055 25.5176L15.8305 27.1843C15.3568 27.6052 14.6432 27.6052 14.1695 27.1843L12.2945 25.5176C11.7786 25.0589 11.7321 24.2689 12.1907 23.7529C12.592 23.3015 13.2469 23.2094 13.75 23.5005V17.5C13.75 16.8096 14.3096 16.25 15 16.25C15.6904 16.25 16.25 16.8096 16.25 17.5V23.5005C16.7531 23.2094 17.408 23.3015 17.8093 23.7529C18.2679 24.2689 18.2214 25.0589 17.7055 25.5176Z" fill="#37ABDF"/>
</svg>
